<svg xmlns="http://www.w3.org/2000/svg" viewBox="0 0 326.44 50.56"><g id="Layer_2" data-name="Layer 2"><g id="Layer_1-2" data-name="Layer 1"><path d="M31.88,22.88H18.65L5.2,50.56H0L25.23,0,50.08,50.56h-5ZM20.72,18.52h9.17L25.3,9.12Z"/><path d="M70.72,22.81V50.56H66.28V.18h22.1A30.33,30.33,0,0,1,94.5.75a13.38,13.38,0,0,1,4.7,1.87,8.8,8.8,0,0,1,3,3.48,12.43,12.43,0,0,1,1.07,5.47,15.86,15.86,0,0,1-.5,3.93,10.61,10.61,0,0,1-1.64,3.56,9,9,0,0,1-3.06,2.64,10.76,10.76,0,0,1-4.74,1.11l14.52,27.75h-5.12L88.68,22.81Zm0-18.2V18.52H88.61A31.64,31.64,0,0,0,93,18.26a9.12,9.12,0,0,0,3.21-1,4.74,4.74,0,0,0,2-2.1,8,8,0,0,0,.69-3.59c0-2.65-.83-4.48-2.48-5.47s-4.32-1.49-8-1.49Z"/><rect x="126.15" y="0.18" width="4.43" height="50.38"/><polygon points="189.98 0.17 189.98 4.61 172.09 4.61 172.09 50.56 167.66 50.56 167.66 4.61 149.62 4.61 149.62 0.17 189.98 0.17"/><path d="M224.31,22.88H211.08L197.63,50.56h-5.2L217.66,0l24.85,50.54h-5Zm-11.16-4.36h9.17l-4.59-9.4Z"/><polygon points="258.71 50.56 258.71 0.17 294.34 0.17 294.34 4.61 263.15 4.61 263.15 18.52 290.06 18.52 290.06 22.96 263.15 22.96 263.15 46.12 294.95 46.12 294.95 50.56 258.71 50.56"/><polygon points="314.69 0.81 311.4 0.81 311.4 9.22 310.49 9.22 310.49 0.81 307.21 0.81 307.21 0 314.69 0 314.69 0.81"/><polygon points="325.53 9.22 325.53 1.65 322.17 7.51 321.64 7.51 318.27 1.65 318.27 9.22 317.36 9.22 317.36 0 318.3 0 321.89 6.31 325.52 0 326.44 0 326.44 9.22 325.53 9.22"/></g></g></svg>