<svg width="37" height="37" viewBox="0 0 37 37">
    <defs>
        <clipPath id="clip-path">
            <rect id="Rectangle_1" width="37" height="37"/>
        </clipPath>
    </defs>
    <g id="Group_1" clip-path="url(#clip-path)">
        <path id="Path_1" d="M28.459,37.344H8.7c-.049-.068,0-.124.027-.178q.428-.772.852-1.545l1.474-2.673q.628-1.139,1.258-2.277.877-1.59,1.754-3.18.641-1.161,1.283-2.322.721-1.308,1.442-2.616c.463-.843.931-1.683,1.393-2.526a.276.276,0,0,1,.049-.068c-.231.218-.458.44-.685.661-.544.53-1.1,1.052-1.643,1.58-.617.6-1.24,1.187-1.858,1.782q-.589.567-1.181,1.131-.941.9-1.877,1.8-.594.571-1.19,1.139c-.618.589-1.232,1.182-1.85,1.772S6.737,30.982,6.133,31.56q-.935.894-1.868,1.79L2.442,35.1c-.61.585-1.225,1.165-1.831,1.754-.141.137-.292.265-.429.408a.738.738,0,0,1-.141.087c-.008-.006-.027.013-.026-.013s0-.069,0-.1V.214A.273.273,0,0,1,.154.2H37c.177,0,.159-.019.159.158q0,18.422,0,36.845a.279.279,0,0,1-.012.14h-.026a.673.673,0,0,1-.2-.141c-.673-.65-1.352-1.292-2.024-1.944-.382-.37-.769-.735-1.153-1.1q-.943-.9-1.887-1.808c-.383-.369-.769-.735-1.153-1.1q-.943-.9-1.887-1.808-.58-.558-1.162-1.113-.942-.9-1.878-1.8-.58-.557-1.162-1.112-.94-.9-1.877-1.8-.589-.566-1.181-1.13-.944-.9-1.888-1.806c-.246-.234-.477-.482-.713-.681.138.239.285.508.433.777q.789,1.433,1.58,2.864l1.586,2.875q.725,1.314,1.45,2.626.863,1.568,1.728,3.135.78,1.415,1.562,2.83.57,1.031,1.138,2.064c.029.054.076.11.027.178" transform="translate(-0.014 -0.186)"/>
        <path id="Path_2" d="M37.127,37.159q0-18.5,0-37c0-.128-.048-.131-.146-.131Q18.493.03,0,.029C.007.021-.012,0,.014,0s.069,0,.1,0Q18.574,0,37.031,0c.1,0,.125.021.125.125q0,18.459,0,36.917c0,.038.03.087-.024.116" transform="translate(0)"/>
    </g>
</svg>